<svg width="120" height="61" viewBox="0 0 120 61" fill="none" xmlns="http://www.w3.org/2000/svg">
<path d="M96.9771 0.00292969H79.751C83.2565 1.41168 86.2769 3.80887 88.4448 6.90295C90.6127 9.99704 91.8348 13.6546 91.9619 17.4304C92.0891 21.2063 91.116 24.9376 89.1611 28.1705C87.2063 31.4034 84.354 33.9985 80.9512 35.6399C83.7936 39.1825 87.6652 41.7554 92.0322 43.0038C96.3992 44.2521 101.046 44.1144 105.332 42.6094C109.617 41.1044 113.329 38.3064 115.957 34.6016C118.584 30.8968 119.997 26.4678 120 21.9259C120 9.0179 110.532 0.00292969 96.9771 0.00292969Z" fill="#00ADEE"/>
<path d="M90.3638 18.068C90.3472 13.3124 88.4634 8.75364 85.1177 5.37402C81.7719 1.99441 77.2322 0.0644877 72.4771 0H54V17.6591H68.239V10.948H75.8711V19.92C75.8661 21.3037 75.3124 22.6289 74.3315 23.6049C73.3507 24.5808 72.0226 25.1278 70.6389 25.126H54V43.848H68.239V36.134H72.5732C77.3098 36.0401 81.8218 34.0979 85.146 30.7224C88.4701 27.3469 90.3425 22.8055 90.3638 18.068Z" fill="#00ADEE"/>
<path d="M52.3931 0.00390625H38.1541V17.6549H52.3931V0.00390625Z" fill="#00ADEE"/>
<path d="M52.3931 25.1218H38.1541V43.8468H52.3931V25.1218Z" fill="#00ADEE"/>
<path d="M22.0649 21.3699L36.7451 0.00390625H20.3889L13.1721 10.3749L12.343 9.10791L18.6841 0.00793457H0V43.8479H36.7639L22.0649 21.3699Z" fill="#00ADEE"/>
<path d="M0.73291 47.903V58.4571H2.33301C2.45246 58.4462 2.57181 58.478 2.66992 58.547C2.7022 58.578 2.72806 58.6153 2.74561 58.6564C2.76315 58.6976 2.77197 58.7418 2.77197 58.7865C2.77197 58.8313 2.76315 58.8755 2.74561 58.9167C2.72806 58.9578 2.7022 58.9951 2.66992 59.026C2.57177 59.095 2.45245 59.1268 2.33301 59.116H0.072998V47.236H2.33301C2.45308 47.2248 2.57298 47.2583 2.66992 47.33C2.70305 47.361 2.72908 47.3987 2.74634 47.4406C2.76359 47.4825 2.77176 47.5277 2.77002 47.573C2.77127 47.6173 2.76286 47.6612 2.74561 47.7019C2.72835 47.7427 2.70256 47.7792 2.66992 47.809C2.57257 47.8799 2.453 47.9133 2.33301 47.903H0.73291Z" fill="#231F20"/>
<path d="M13.61 53.848H6.89299C6.97865 54.6448 7.36102 55.3801 7.96403 55.908C8.58259 56.4355 9.37529 56.714 10.1879 56.689C10.7124 56.6841 11.2333 56.6019 11.7338 56.4449C12.2095 56.3142 12.6569 56.0962 13.0529 55.802C13.1239 55.7358 13.2145 55.6944 13.311 55.684C13.3526 55.6845 13.3934 55.6936 13.4313 55.7108C13.4692 55.728 13.5032 55.753 13.5309 55.7841C13.5612 55.8146 13.5851 55.8507 13.6012 55.8905C13.6174 55.9303 13.6254 55.973 13.6249 56.016C13.6224 56.0653 13.61 56.1136 13.5885 56.1581C13.5671 56.2026 13.537 56.2424 13.4999 56.275C13.1129 56.6142 12.6562 56.8644 12.162 57.0081C11.5286 57.2347 10.8607 57.3503 10.1879 57.35C9.66599 57.3649 9.14654 57.2742 8.66056 57.0832C8.17459 56.8923 7.73225 56.6052 7.36003 56.239C6.9951 55.8942 6.70564 55.4772 6.51042 55.0146C6.3152 54.5521 6.21846 54.054 6.22599 53.552C6.22071 53.0897 6.31265 52.6315 6.49577 52.207C6.67889 51.7826 6.9491 51.4014 7.28898 51.088C7.63718 50.7498 8.04946 50.4846 8.50163 50.3081C8.9538 50.1316 9.43679 50.0472 9.92204 50.0601C10.4141 50.0438 10.9041 50.129 11.3617 50.3105C11.8194 50.4921 12.2348 50.7659 12.582 51.115C12.9309 51.4762 13.202 51.9049 13.3788 52.375C13.5556 52.845 13.6345 53.3464 13.61 53.848ZM12.943 53.181C12.829 52.4832 12.4613 51.8518 11.9108 51.408C11.3427 50.9666 10.6441 50.7264 9.92473 50.725C9.2053 50.7235 8.50585 50.9609 7.93596 51.4C7.38354 51.8462 7.01462 52.4802 6.89982 53.181H12.943Z" fill="#00ADEE"/>
<path d="M17.5568 50.288V51.288C17.9159 50.8992 18.3374 50.5731 18.8038 50.323C19.197 50.1403 19.6265 50.0491 20.0599 50.056C20.537 50.05 21.0084 50.1605 21.433 50.3781C21.7609 50.5668 22.0358 50.8349 22.2328 51.158C22.4604 51.4872 22.5849 51.8768 22.59 52.277V56.428H23.1478C23.2673 56.4166 23.3871 56.4485 23.485 56.5179C23.5185 56.5478 23.5446 56.5847 23.5619 56.6261C23.5792 56.6675 23.5871 56.7122 23.5848 56.757C23.5861 56.8012 23.5779 56.8451 23.5607 56.8859C23.5434 56.9266 23.5176 56.9632 23.485 56.993C23.3879 57.0645 23.2679 57.098 23.1478 57.087H21.382C21.2594 57.0985 21.1368 57.0651 21.037 56.993C21.0044 56.9632 20.9786 56.9266 20.9613 56.8859C20.9441 56.8452 20.9357 56.8012 20.9369 56.757C20.9346 56.7122 20.9425 56.6675 20.9598 56.6261C20.9772 56.5847 21.0035 56.5478 21.037 56.5179C21.1378 56.4483 21.26 56.4165 21.382 56.428H21.9308V52.386C21.9344 52.1642 21.8908 51.9442 21.8029 51.7406C21.7149 51.537 21.5847 51.3544 21.4208 51.205C21.0468 50.8711 20.5565 50.698 20.0558 50.723C19.6629 50.7133 19.2741 50.8038 18.9259 50.986C18.4055 51.3473 17.9449 51.788 17.5609 52.292V56.428H18.3058C18.4256 56.417 18.5455 56.4489 18.6439 56.5179C18.6771 56.548 18.7031 56.585 18.7203 56.6263C18.7376 56.6676 18.7456 56.7122 18.7438 56.757C18.7448 56.8011 18.7364 56.8451 18.7191 56.8857C18.7019 56.9264 18.6764 56.963 18.6439 56.993C18.5463 57.0642 18.4261 57.0976 18.3058 57.087H16.1559C16.0358 57.0981 15.916 57.0646 15.819 56.993C15.7864 56.9632 15.7605 56.9266 15.7433 56.8859C15.726 56.8452 15.7177 56.8012 15.7189 56.757C15.7166 56.7122 15.7245 56.6675 15.7418 56.6261C15.7591 56.5847 15.7855 56.5478 15.819 56.5179C15.9169 56.4485 16.0364 56.4166 16.1559 56.428H16.9008V50.958H16.3439C16.2238 50.9693 16.1039 50.9358 16.007 50.864C15.9739 50.833 15.9478 50.7952 15.9306 50.7533C15.9133 50.7114 15.9052 50.6663 15.9069 50.621C15.9057 50.5768 15.914 50.5329 15.9313 50.4922C15.9485 50.4515 15.9744 50.4149 16.007 50.385C16.1041 50.3136 16.2238 50.2802 16.3439 50.291L17.5568 50.288Z" fill="#00ADEE"/>
<path d="M31.5481 51.497V50.288H33.094C33.214 50.2771 33.3338 50.3105 33.4309 50.382C33.4641 50.4131 33.4903 50.4511 33.5076 50.4932C33.5248 50.5353 33.5328 50.5805 33.531 50.626C33.5322 50.6701 33.5239 50.7139 33.5066 50.7544C33.4893 50.795 33.4635 50.8313 33.4309 50.861C33.3341 50.9329 33.2141 50.9664 33.094 50.955H32.207V57.539C32.2143 57.949 32.117 58.3541 31.9241 58.716C31.7607 58.9905 31.5482 59.2326 31.2971 59.4301C31.0564 59.642 30.7871 59.8191 30.4971 59.9561C30.1891 60.0722 29.8609 60.1256 29.532 60.1131H27.665C27.5453 60.1239 27.4254 60.092 27.3269 60.023C27.2937 59.9927 27.2675 59.9556 27.2502 59.9141C27.233 59.8726 27.2251 59.8279 27.2271 59.783C27.2253 59.7377 27.2332 59.6926 27.2505 59.6507C27.2677 59.6087 27.2938 59.571 27.3269 59.5401C27.4242 59.4683 27.5446 59.4348 27.665 59.4461L29.5559 59.453C29.9267 59.4574 30.2908 59.353 30.603 59.153C30.932 58.9348 31.1984 58.6346 31.376 58.282C31.5003 58.0203 31.5598 57.7325 31.5491 57.443V55.465C31.2508 55.9153 30.8446 56.2841 30.3677 56.5376C29.8908 56.7912 29.3582 56.9216 28.8181 56.917C28.3792 56.9208 27.9442 56.8331 27.541 56.6596C27.1378 56.486 26.7751 56.2305 26.4761 55.9091C25.8443 55.2592 25.4907 54.3885 25.4907 53.4821C25.4907 52.5757 25.8443 51.705 26.4761 51.0551C26.7761 50.7355 27.1391 50.4816 27.5422 50.3095C27.9454 50.1374 28.3798 50.0507 28.8181 50.0551C29.3571 50.0501 29.8886 50.1792 30.3652 50.4309C30.8418 50.6827 31.2484 51.049 31.5481 51.497ZM31.5481 53.4821C31.5553 53.1178 31.4879 52.7559 31.3503 52.4185C31.2128 52.0811 31.0079 51.7754 30.748 51.5201C30.5008 51.2665 30.2052 51.0651 29.8789 50.9275C29.5526 50.79 29.202 50.719 28.8479 50.719C28.4938 50.719 28.1434 50.79 27.8171 50.9275C27.4908 51.0651 27.1952 51.2665 26.948 51.5201C26.4399 52.0468 26.156 52.7502 26.156 53.4821C26.156 54.214 26.4399 54.9172 26.948 55.444C27.1949 55.6981 27.4903 55.9002 27.8167 56.0381C28.143 56.1761 28.4936 56.2472 28.8479 56.2472C29.2022 56.2472 29.553 56.1761 29.8794 56.0381C30.2058 55.9002 30.5012 55.6981 30.748 55.444C31.0073 55.1882 31.2118 54.8825 31.3494 54.5452C31.4869 54.2079 31.5546 53.8463 31.5481 53.4821Z" fill="#00ADEE"/>
<path d="M39.3239 50.288V56.425H41.9139C42.036 56.4135 42.1581 56.4454 42.2589 56.515C42.2924 56.5448 42.3188 56.5818 42.3361 56.6232C42.3534 56.6645 42.361 56.7093 42.3588 56.754C42.36 56.7982 42.3519 56.8421 42.3346 56.8828C42.3174 56.9235 42.2915 56.9601 42.2589 56.99C42.1591 57.062 42.0365 57.0954 41.9139 57.084H36.0748C35.9549 57.0943 35.8353 57.0609 35.7379 56.99C35.7053 56.9601 35.6795 56.9237 35.6622 56.8829C35.645 56.8422 35.6366 56.7982 35.6378 56.754C35.6356 56.7093 35.6435 56.6645 35.6608 56.6232C35.6781 56.5818 35.7045 56.5448 35.7379 56.515C35.836 56.446 35.9554 56.4142 36.0748 56.425H38.6649V50.955H36.7418C36.6206 50.9655 36.4995 50.9321 36.4008 50.861C36.3667 50.8321 36.3398 50.7961 36.3214 50.7555C36.3031 50.7148 36.2939 50.6706 36.2948 50.626C36.2931 50.5805 36.3012 50.5353 36.3185 50.4932C36.3357 50.4511 36.3618 50.4131 36.3949 50.382C36.4948 50.3099 36.6173 50.2765 36.7399 50.288H39.3239ZM39.3009 46.906V48.606H38.3268V46.906H39.3009Z" fill="#00ADEE"/>
<path d="M46.4879 50.288V51.288C46.8472 50.899 47.2691 50.5729 47.736 50.323C48.1291 50.1402 48.5584 50.0489 48.9918 50.056C49.4689 50.0501 49.9402 50.1607 50.3649 50.3781C50.6928 50.5667 50.968 50.8349 51.1649 51.158C51.3921 51.4874 51.5163 51.8769 51.5219 52.277V56.428H52.079C52.1987 56.4171 52.3184 56.449 52.4169 56.518C52.4503 56.5478 52.4767 56.5848 52.494 56.6261C52.5113 56.6675 52.5192 56.7122 52.517 56.757C52.5182 56.8012 52.5098 56.8452 52.4926 56.8859C52.4753 56.9266 52.4495 56.9632 52.4169 56.9931C52.3193 57.0642 52.1993 57.0976 52.079 57.0871H50.3139C50.1913 57.0986 50.0687 57.0652 49.9689 56.9931C49.9362 56.9632 49.9105 56.9266 49.8932 56.8859C49.8759 56.8452 49.8675 56.8012 49.8688 56.757C49.8665 56.7122 49.8744 56.6675 49.8917 56.6261C49.909 56.5848 49.9354 56.5478 49.9689 56.518C50.0697 56.4482 50.1918 56.4164 50.3139 56.428H50.8629V52.386C50.8664 52.1643 50.8227 51.9443 50.7348 51.7407C50.6468 51.5371 50.5168 51.3545 50.3529 51.205C49.9789 50.8712 49.4886 50.6982 48.9879 50.723C48.595 50.7134 48.206 50.8038 47.8578 50.986C47.3372 51.3475 46.8764 51.7882 46.4918 52.292V56.428H47.2379C47.3574 56.417 47.4768 56.4489 47.5748 56.518C47.6083 56.5478 47.6347 56.5848 47.652 56.6261C47.6693 56.6675 47.6772 56.7122 47.6749 56.757C47.6761 56.8012 47.6678 56.8452 47.6505 56.8859C47.6333 56.9266 47.6074 56.9632 47.5748 56.9931C47.4777 57.0645 47.358 57.0979 47.2379 57.0871H45.0878C44.9675 57.0976 44.8475 57.0642 44.7499 56.9931C44.7173 56.9632 44.6915 56.9266 44.6742 56.8859C44.6569 56.8452 44.6485 56.8012 44.6498 56.757C44.6475 56.7122 44.6554 56.6675 44.6727 56.6261C44.69 56.5848 44.7164 56.5478 44.7499 56.518C44.8483 56.4489 44.968 56.417 45.0878 56.428H45.8329V50.958H45.2758C45.1557 50.9694 45.0357 50.9359 44.9389 50.864C44.9057 50.8331 44.8797 50.7954 44.8624 50.7534C44.8452 50.7115 44.8373 50.6663 44.839 50.621C44.8378 50.5768 44.8459 50.5329 44.8632 50.4922C44.8804 50.4515 44.9063 50.4149 44.9389 50.385C45.0359 50.3135 45.1557 50.2801 45.2758 50.291L46.4879 50.288Z" fill="#00ADEE"/>
<path d="M61.829 53.848H55.112C55.1976 54.6448 55.58 55.3802 56.183 55.908C56.8019 56.4356 57.595 56.7141 58.4079 56.689C58.9324 56.6841 59.4535 56.6019 59.954 56.445C60.4295 56.3145 60.8764 56.0964 61.2719 55.802C61.3433 55.7359 61.4342 55.6945 61.5309 55.684C61.5725 55.6845 61.6137 55.6936 61.6515 55.7108C61.6894 55.7281 61.7232 55.7531 61.7509 55.7841C61.7812 55.8146 61.8051 55.8507 61.8212 55.8905C61.8373 55.9304 61.8454 55.973 61.8449 56.016C61.8424 56.0654 61.8299 56.1138 61.8083 56.1583C61.7866 56.2028 61.7563 56.2426 61.7189 56.275C61.3321 56.614 60.8758 56.8643 60.382 57.0081C59.7486 57.2348 59.0807 57.3504 58.4079 57.35C57.8858 57.3648 57.3662 57.2741 56.88 57.0832C56.3939 56.8922 55.9515 56.6051 55.579 56.239C55.2141 55.8942 54.9246 55.4772 54.7294 55.0147C54.5342 54.5521 54.4375 54.054 54.445 53.552C54.4401 53.0897 54.5322 52.6316 54.7155 52.2072C54.8988 51.7827 55.1691 51.4015 55.509 51.088C55.857 50.7499 56.2691 50.4847 56.7211 50.3081C57.1731 50.1316 57.6559 50.0473 58.141 50.0601C58.6331 50.0437 59.1231 50.1289 59.5807 50.3104C60.0384 50.492 60.4538 50.7658 60.8009 51.115C61.1503 51.4759 61.4217 51.9047 61.5986 52.3748C61.7754 52.8449 61.8539 53.3464 61.829 53.848ZM61.162 53.1811C61.0488 52.4829 60.6809 51.8513 60.1298 51.408C59.5618 50.9667 58.8635 50.7266 58.1442 50.7251C57.425 50.7237 56.7257 50.961 56.1559 51.4C55.6032 51.846 55.2345 52.4801 55.12 53.1811H61.162Z" fill="#00ADEE"/>
<path d="M67.6 58.4571V47.9031H65.9999C65.8796 47.9136 65.7596 47.8802 65.662 47.8091C65.6294 47.7792 65.6033 47.7427 65.5861 47.702C65.5688 47.6613 65.5606 47.6173 65.5619 47.5731C65.5602 47.5278 65.5681 47.4826 65.5853 47.4406C65.6026 47.3987 65.6289 47.361 65.662 47.3301C65.7592 47.2582 65.8795 47.2247 65.9999 47.2361H68.2599V59.1161H65.9999C65.8801 59.127 65.7605 59.0952 65.662 59.0261C65.6285 58.9963 65.6022 58.9593 65.5848 58.9179C65.5675 58.8766 65.5596 58.8319 65.5619 58.7871C65.5606 58.7429 65.5688 58.6989 65.5861 58.6582C65.6033 58.6175 65.6294 58.581 65.662 58.5511C65.7592 58.4792 65.8795 58.4458 65.9999 58.4571H67.6Z" fill="#231F20"/>
</svg>
