<?xml version="1.0" encoding="utf-8"?>
<!-- Generator: Adobe Illustrator 16.0.3, SVG Export Plug-In . SVG Version: 6.00 Build 0)  -->
<!DOCTYPE svg PUBLIC "-//W3C//DTD SVG 1.1//EN" "http://www.w3.org/Graphics/SVG/1.1/DTD/svg11.dtd">
<svg version="1.1" id="Layer_1" xmlns="http://www.w3.org/2000/svg" xmlns:xlink="http://www.w3.org/1999/xlink" x="0px" y="0px"
	 width="170px" height="60px" viewBox="0 0 170 60" enable-background="new 0 0 170 60" xml:space="preserve">
<g>
	<path fill="#FFFFFF" d="M135.345,0.131h-23.452c9.795,3.967,16.638,13.782,16.638,24.385c0,10.364-5.871,19.781-15.007,24.168
		c5.703,7.118,14.159,11.188,23.298,11.188c16.472,0,29.874-13.402,29.874-29.873C166.696,12.414,153.804,0.131,135.345,0.131z"/>
	<path fill="#FFFFFF" d="M126.342,24.743c0-13.432-10.924-24.474-24.354-24.616H76.829v24.06h19.388v-9.143h10.393v12.224
		c0,3.912-3.198,7.094-7.127,7.094H76.829v25.512h19.388V49.361h5.898C115.473,49.157,126.342,38.112,126.342,24.743z"/>
	<rect x="55.256" y="0.133" fill="#FFFFFF" width="19.387" height="24.049"/>
	<rect x="55.256" y="34.355" fill="#FFFFFF" width="19.387" height="25.512"/>
	<polygon fill="#FFFFFF" points="53.336,0.133 31.066,0.133 21.24,14.263 20.112,12.536 28.746,0.133 3.305,0.133 3.305,59.867 
		53.363,59.867 33.348,29.244 	"/>
</g>
</svg>
