<?xml version="1.0" encoding="utf-8"?>
<!-- Generator: Adobe Illustrator 16.0.3, SVG Export Plug-In . SVG Version: 6.00 Build 0)  -->
<!DOCTYPE svg PUBLIC "-//W3C//DTD SVG 1.1//EN" "http://www.w3.org/Graphics/SVG/1.1/DTD/svg11.dtd">
<svg version="1.1" id="Layer_1" xmlns="http://www.w3.org/2000/svg" xmlns:xlink="http://www.w3.org/1999/xlink" x="0px" y="0px"
	 width="20px" height="20px" viewBox="0 0 20 20" enable-background="new 0 0 20 20" xml:space="preserve">
<path fill="#FFFFFF" d="M15.697,6.707c0.504,0,0.949,0.186,1.334,0.557c0.387,0.371,0.578,0.808,0.578,1.313V18.1
	c0,0.504-0.191,0.942-0.578,1.313c-0.385,0.371-0.83,0.557-1.334,0.557H4.304c-0.504,0-0.949-0.186-1.335-0.557
	C2.583,19.042,2.39,18.604,2.39,18.1V8.576c0-0.504,0.193-0.942,0.579-1.313c0.386-0.371,0.831-0.557,1.335-0.557h0.935V4.793
	c0-1.305,0.467-2.425,1.402-3.36S8.695,0.031,10,0.031c1.306,0,2.426,0.467,3.359,1.402c0.936,0.935,1.402,2.055,1.402,3.36v1.914
	H15.697z M12.938,6.707V4.793c0-0.801-0.289-1.491-0.867-2.069C11.491,2.145,10.801,1.856,10,1.856
	c-0.801,0-1.491,0.289-2.069,0.868S7.063,3.992,7.063,4.793v1.914H12.938z M8.665,14.673c0.386,0.386,0.831,0.578,1.335,0.578
	s0.95-0.192,1.336-0.578c0.385-0.386,0.578-0.831,0.578-1.335c0-0.505-0.193-0.949-0.578-1.335
	c-0.386-0.386-0.832-0.579-1.336-0.579s-0.949,0.193-1.335,0.579s-0.579,0.83-0.579,1.335C8.086,13.842,8.279,14.287,8.665,14.673z"
	/>
</svg>
