<?xml version="1.0" encoding="utf-8"?>
<!-- Generator: Adobe Illustrator 16.0.3, SVG Export Plug-In . SVG Version: 6.00 Build 0)  -->
<!DOCTYPE svg PUBLIC "-//W3C//DTD SVG 1.1//EN" "http://www.w3.org/Graphics/SVG/1.1/DTD/svg11.dtd">
<svg version="1.1" id="Layer_1" xmlns="http://www.w3.org/2000/svg" xmlns:xlink="http://www.w3.org/1999/xlink" x="0px" y="0px"
	 width="20px" height="20px" viewBox="0 0 20 20" enable-background="new 0 0 20 20" xml:space="preserve">
<path fill="#FFFFFF" d="M3.459,13.867C5.728,12.956,7.907,12.5,10,12.5s4.273,0.456,6.54,1.367c2.268,0.91,3.401,2.101,3.401,3.574
	v2.5H0.059v-2.5C0.059,15.968,1.192,14.777,3.459,13.867z M13.488,8.546C12.52,9.515,11.356,10,10,10
	c-1.356,0-2.519-0.485-3.488-1.454C5.542,7.578,5.059,6.415,5.059,5.059c0-1.357,0.484-2.529,1.453-3.518
	C7.481,0.553,8.644,0.059,10,0.059c1.356,0,2.52,0.494,3.488,1.482c0.968,0.988,1.453,2.161,1.453,3.518
	C14.941,6.415,14.456,7.578,13.488,8.546z"/>
</svg>
